<svg xmlns="http://www.w3.org/2000/svg" width="800" height="480" viewBox="0 0 800 480" font-family="ui-monospace, SFMono-Regular, Menlo, Consolas, monospace" font-size="12"><rect width="800" height="480" fill="var(--bg, #ffffff)"/><style>.ax{stroke:#444;fill:none}.gr{stroke:#e2e2e2;fill:none}.gm{stroke:#f0f0f0;fill:none}text{fill:#222}</style><text x="67.60" y="30.00" font-size="15" font-weight="bold">Stopband</text><text x="67.60" y="50.00" fill="#666">peak -24.7 dB</text><clipPath id="pane"><rect x="67.60" y="70.00" width="714.40" height="364.00"/></clipPath><path class="gr" d="M166.65 70.00V434.00"/><text x="166.65" y="452.00" text-anchor="middle">5k</text><path class="gr" d="M474.32 70.00V434.00"/><text x="474.32" y="452.00" text-anchor="middle">10k</text><path class="gr" d="M782.00 70.00V434.00"/><text x="782.00" y="452.00" text-anchor="middle">20k</text><path class="gr" d="M67.60 385.47H782.00"/><text x="61.60" y="389.67" text-anchor="end">-70</text><path class="gr" d="M67.60 324.80H782.00"/><text x="61.60" y="329.00" text-anchor="end">-60</text><path class="gr" d="M67.60 264.13H782.00"/><text x="61.60" y="268.33" text-anchor="end">-50</text><path class="gr" d="M67.60 203.47H782.00"/><text x="61.60" y="207.67" text-anchor="end">-40</text><path class="gr" d="M67.60 142.80H782.00"/><text x="61.60" y="147.00" text-anchor="end">-30</text><path class="gr" d="M67.60 82.13H782.00"/><text x="61.60" y="86.33" text-anchor="end">-20</text><g clip-path="url(#pane)"><path d="M73.22 110.68L88.63 114.51L104.04 118.36L119.45 122.22L134.86 126.10L150.26 130.00L165.67 133.91L181.08 137.85L196.49 141.81L211.90 145.79L227.31 149.80L242.71 153.84L258.12 157.90L273.53 162.00L288.94 166.14L304.35 170.31L319.75 174.52L335.16 178.78L350.57 183.09L365.98 187.45L381.39 191.86L396.80 196.34L412.20 200.89L427.61 205.52L443.02 210.22L458.43 215.02L473.84 219.92L489.24 224.93L504.65 230.07L520.06 235.34L535.47 240.77L550.88 246.37L566.29 252.16L581.69 258.17L597.10 264.42L612.51 270.96L627.92 277.82L643.33 285.06L658.73 292.74L674.14 300.93L689.55 309.73L704.96 319.28L720.37 329.73L735.78 341.31L751.18 354.33L766.59 369.26L782.00 386.78" fill="none" stroke="#1f77b4" stroke-width="1.50" stroke-linejoin="round"/></g><rect class="ax" x="67.60" y="70.00" width="714.40" height="364.00" fill="none"/><text x="424.80" y="468.00" text-anchor="middle" fill="#444">frequency (Hz)</text><text x="16.00" y="252.00" text-anchor="middle" fill="#444" transform="rotate(-90 16.00 252.00)">magnitude (dB)</text></svg>